<svg xmlns="http://www.w3.org/2000/svg" xmlns:xlink="http://www.w3.org/1999/xlink" width="500" zoomAndPan="magnify" viewBox="0 0 375 374.999991" height="500" preserveAspectRatio="xMidYMid meet" version="1.0"><defs><g/><clipPath id="eb683e9971"><path d="M 96.226562 92.210938 L 278.777344 92.210938 L 278.777344 219.363281 L 96.226562 219.363281 Z M 96.226562 92.210938 " clip-rule="nonzero"/></clipPath></defs><g clip-path="url(#eb683e9971)"><path fill="#7ed957" d="M 187.5 92.210938 C 237.902344 92.210938 278.777344 133.082031 278.777344 183.484375 C 278.777344 189.542969 278.183594 195.460938 277.054688 201.1875 C 258.417969 197.523438 243.199219 193.375 224.113281 185.789062 C 242.421875 195.730469 260.292969 201.078125 276.101562 205.46875 C 275.664062 207.234375 275.175781 208.976562 274.640625 210.699219 C 259.578125 205.492188 242.457031 198.503906 231.648438 192.472656 C 227.898438 190.378906 224.925781 188.414062 223.089844 186.699219 C 221.507812 185.21875 220.824219 184.015625 221.332031 183.21875 L 221.332031 183.222656 C 221.507812 182.949219 221.816406 182.695312 222.273438 182.453125 L 222.828125 182.164062 C 229.804688 178.523438 258.175781 163.699219 260.179688 156.425781 C 260.703125 154.53125 259.847656 153.097656 257.097656 152.339844 C 240.488281 147.765625 217.308594 145.96875 193.441406 144.464844 C 167.144531 142.808594 131.042969 143.773438 110.300781 144.625 C 130.054688 144.765625 159.113281 145.089844 182.523438 146.78125 C 200.289062 148.070312 217.332031 150.160156 232.179688 153.382812 C 234.554688 153.894531 235.570312 154.425781 235.449219 154.980469 C 234.730469 158.296875 215.953125 164.554688 192.109375 172.503906 C 160.648438 182.996094 120.464844 196.390625 100.40625 210.84375 C 99.835938 209.03125 99.324219 207.195312 98.867188 205.339844 C 138.882812 183.546875 185.800781 174.097656 227.699219 157.625 C 184.660156 173.03125 140.632812 179.074219 97.796875 200.414062 C 96.765625 194.929688 96.226562 189.269531 96.226562 183.484375 C 96.226562 133.082031 137.097656 92.210938 187.5 92.210938 Z M 199.914062 219.363281 C 189.550781 219.285156 176.578125 219.203125 166.210938 219.125 C 166.695312 210.308594 171.453125 196.746094 179.234375 188.964844 L 189.519531 188.964844 C 188.09375 195.453125 190.519531 208.628906 199.914062 219.363281 Z M 182.296875 186.335938 C 183.859375 185.207031 185.515625 184.3125 187.261719 183.722656 C 190.425781 182.660156 193.980469 181.394531 197.765625 179.976562 L 203.480469 179.976562 C 199.601562 181.707031 195.703125 183.417969 191.808594 185.160156 C 191.320312 185.375 190.894531 185.777344 190.53125 186.335938 Z M 203.476562 177.785156 C 207.441406 176.226562 211.554688 174.53125 215.652344 172.742188 L 219.144531 172.742188 C 215.582031 174.476562 211.984375 176.144531 208.367188 177.785156 Z M 219.105469 171.207031 C 230.222656 166.1875 240.871094 160.546875 247.703125 155.113281 C 250.128906 153.179688 242.480469 151.65625 227.546875 149.359375 C 243.6875 151.34375 251.378906 153.308594 248.617188 155.355469 C 240.269531 161.539062 231.398438 166.621094 222.25 171.207031 L 219.105469 171.207031 " fill-opacity="1" fill-rule="evenodd"/></g><g fill="#313d48" fill-opacity="1"><g transform="translate(75.478327, 253.151018)"><g><path d="M 0.511719 4.65625 C 0.8125 4.65625 1.066406 4.527344 1.195312 4.316406 C 1.539062 3.757812 1.625 3.203125 1.75 2.5625 L 3.160156 -3.84375 C 3.203125 -4.058594 3.289062 -4.230469 3.332031 -4.441406 C 3.375 -4.65625 3.460938 -4.828125 3.675781 -5 C 4.527344 -4.871094 5.339844 -4.484375 6.152344 -4.144531 C 6.621094 -3.972656 7.050781 -3.800781 7.519531 -3.632812 C 7.945312 -3.417969 8.417969 -3.246094 8.886719 -3.074219 C 9.699219 -2.777344 10.550781 -2.648438 11.40625 -2.648438 C 13.242188 -2.648438 15.464844 -3.375 16.960938 -4.527344 C 18.457031 -5.683594 19.910156 -6.792969 21.402344 -7.945312 C 21.703125 -8.117188 21.875 -8.332031 22.085938 -8.628906 C 22.171875 -8.757812 22.214844 -8.929688 22.214844 -9.144531 C 22.257812 -9.355469 22.003906 -9.613281 21.789062 -9.613281 C 21.746094 -9.613281 21.746094 -9.613281 21.746094 -9.613281 C 21.703125 -9.570312 21.703125 -9.570312 21.660156 -9.570312 C 21.574219 -9.527344 21.445312 -9.484375 21.277344 -9.355469 C 20.550781 -8.714844 19.824219 -8.074219 19.054688 -7.519531 C 18.242188 -6.921875 17.472656 -6.324219 16.703125 -5.726562 C 15.210938 -4.570312 13.242188 -3.757812 11.40625 -3.757812 C 10.851562 -3.757812 10.296875 -3.800781 9.742188 -3.972656 C 8.5 -4.316406 7.304688 -4.871094 6.109375 -5.425781 C 6.023438 -5.46875 5.980469 -5.511719 5.980469 -5.640625 C 5.980469 -5.726562 6.023438 -5.808594 6.109375 -5.851562 C 6.238281 -5.894531 6.367188 -5.980469 6.492188 -6.066406 C 6.621094 -6.109375 6.707031 -6.195312 6.835938 -6.238281 C 11.449219 -8.757812 15.082031 -12.089844 17.472656 -16.832031 C 17.859375 -17.644531 18.199219 -18.457031 18.414062 -19.3125 C 18.628906 -20.035156 18.667969 -20.761719 18.542969 -21.53125 C 18.414062 -22.429688 17.859375 -22.941406 16.960938 -23.027344 C 12.304688 -23.027344 7.902344 -17.175781 5.765625 -13.117188 C 5.640625 -13.5 5.640625 -13.84375 5.765625 -14.183594 C 5.894531 -14.484375 5.980469 -14.824219 6.066406 -15.167969 C 6.921875 -18.628906 7.859375 -22.128906 8.757812 -25.589844 C 8.886719 -25.933594 9.015625 -26.316406 8.886719 -26.703125 C 8.84375 -26.914062 8.714844 -27.042969 8.542969 -27.085938 C 8.5 -27.085938 8.5 -27.085938 8.5 -27.128906 C 8.460938 -27.128906 8.460938 -27.128906 8.417969 -27.128906 C 8.289062 -27.128906 8.203125 -27.042969 8.074219 -26.871094 C 7.902344 -26.617188 7.777344 -26.359375 7.734375 -26.0625 C 7.648438 -25.761719 7.5625 -25.460938 7.476562 -25.164062 C 6.492188 -21.105469 5.511719 -17.132812 4.359375 -13.160156 C 3.800781 -11.234375 3.332031 -9.3125 2.863281 -7.390625 C 2.390625 -5.46875 1.792969 -3.589844 1.066406 -1.75 C 0.425781 -0.214844 0.171875 1.367188 0.0429688 3.035156 C 0 3.417969 -0.0859375 3.800781 0.0429688 4.144531 C 0.128906 4.402344 0.300781 4.570312 0.511719 4.65625 Z M 4.402344 -6.535156 C 4.230469 -6.535156 4.015625 -6.707031 4.144531 -6.921875 C 6.109375 -11.917969 9.742188 -19.226562 14.78125 -21.445312 C 15.292969 -21.660156 15.808594 -21.917969 16.363281 -21.917969 C 17.175781 -21.917969 17.472656 -21.703125 17.515625 -20.890625 L 17.515625 -20.636719 C 17.386719 -18.242188 14.996094 -14.527344 13.414062 -12.816406 C 11.109375 -10.296875 7.859375 -7.433594 4.527344 -6.535156 Z M 4.402344 -6.535156 "/></g></g></g><g fill="#313d48" fill-opacity="1"><g transform="translate(95.557922, 253.151018)"><g><path d="M 1.792969 -2.136719 C 2.179688 -2.136719 2.605469 -2.265625 2.992188 -2.476562 C 3.546875 -2.863281 3.972656 -3.332031 4.273438 -3.972656 C 4.65625 -4.785156 4.742188 -5.597656 4.570312 -6.410156 C 4.441406 -7.132812 4.402344 -7.132812 5.210938 -7.261719 C 6.109375 -7.347656 6.921875 -7.5625 7.734375 -7.859375 C 8.5 -8.160156 9.3125 -8.417969 10.125 -8.714844 C 10.507812 -8.84375 10.59375 -9.101562 10.46875 -9.398438 C 10.339844 -9.613281 10.125 -9.742188 9.910156 -9.742188 L 9.226562 -9.570312 C 8.84375 -9.441406 8.460938 -9.269531 8.074219 -9.144531 C 7.691406 -9.015625 7.261719 -8.84375 6.878906 -8.714844 C 6.066406 -8.460938 5.296875 -8.332031 4.484375 -8.332031 L 3.160156 -8.332031 C 2.863281 -8.289062 2.605469 -7.988281 2.734375 -7.691406 C 2.863281 -7.390625 2.992188 -7.132812 3.160156 -6.835938 C 3.800781 -5.851562 3.589844 -4.957031 3.035156 -4.058594 C 2.648438 -3.375 2.222656 -3.289062 1.539062 -3.289062 C 0.984375 -3.417969 0.683594 -3.929688 0.683594 -4.742188 C 0.683594 -5.210938 0.726562 -5.640625 0.855469 -5.980469 C 1.023438 -6.707031 1.324219 -7.433594 1.707031 -8.160156 C 2.179688 -8.886719 2.5625 -9.613281 3.546875 -9.785156 C 3.84375 -9.828125 3.84375 -10.039062 3.800781 -10.339844 C 3.757812 -10.550781 3.632812 -10.722656 3.332031 -10.765625 C 3.117188 -10.765625 2.949219 -10.722656 2.777344 -10.636719 C 1.109375 -9.996094 -0.300781 -6.792969 -0.425781 -5.042969 C -0.46875 -4.699219 -0.425781 -4.316406 -0.339844 -3.929688 C -0.128906 -2.777344 0.769531 -2.136719 1.792969 -2.136719 Z M 1.792969 -2.136719 "/></g></g></g><g fill="#313d48" fill-opacity="1"><g transform="translate(103.931536, 253.151018)"><g><path d="M 0.214844 -3.675781 C 0.769531 -3.675781 1.496094 -4.273438 1.878906 -4.613281 C 2.949219 -5.597656 3.886719 -6.621094 4.871094 -7.777344 C 5 -7.902344 5.167969 -8.074219 5.296875 -8.246094 C 5.425781 -8.417969 5.640625 -8.542969 5.9375 -8.671875 C 5.640625 -7.519531 5.382812 -6.410156 5.382812 -5.253906 C 5.382812 -4.441406 5.726562 -4.015625 6.449219 -4.015625 C 6.621094 -4.015625 6.75 -4.015625 6.835938 -4.058594 C 8.628906 -4.359375 11.664062 -7.21875 12.902344 -8.460938 C 12.945312 -8.5 13.03125 -8.585938 13.074219 -8.628906 C 13.117188 -8.671875 13.117188 -8.714844 13.160156 -8.757812 C 13.242188 -9.058594 13.203125 -9.269531 12.988281 -9.398438 C 12.902344 -9.484375 12.816406 -9.527344 12.6875 -9.527344 C 12.644531 -9.527344 12.601562 -9.484375 12.476562 -9.441406 C 12.347656 -9.355469 12.21875 -9.269531 12.132812 -9.183594 C 12.003906 -9.058594 11.875 -8.972656 11.75 -8.84375 C 11.363281 -8.542969 11.023438 -8.246094 10.722656 -7.945312 C 10.382812 -7.648438 10.039062 -7.304688 9.65625 -7.007812 C 9.144531 -6.535156 8.585938 -6.195312 8.074219 -5.851562 C 7.691406 -5.640625 7.304688 -5.46875 6.921875 -5.296875 C 6.878906 -5.253906 6.835938 -5.253906 6.75 -5.253906 C 6.578125 -5.253906 6.492188 -5.382812 6.492188 -5.640625 C 6.492188 -7.476562 7.816406 -10.59375 8.628906 -12.21875 C 8.714844 -12.433594 8.800781 -12.601562 8.929688 -12.816406 C 9.015625 -12.988281 9.101562 -13.160156 9.183594 -13.371094 C 9.3125 -13.757812 9.269531 -14.054688 8.972656 -14.226562 C 8.84375 -14.269531 8.757812 -14.3125 8.714844 -14.3125 C 8.585938 -14.3125 8.417969 -14.226562 8.203125 -14.011719 C 8.074219 -13.886719 7.988281 -13.714844 7.902344 -13.585938 C 7.777344 -13.414062 7.691406 -13.242188 7.5625 -13.117188 C 7.304688 -12.773438 7.050781 -12.433594 6.835938 -12.089844 C 6.578125 -11.75 6.324219 -11.40625 6.066406 -11.109375 C 5.894531 -10.894531 5.765625 -10.765625 5.683594 -10.765625 C 5.640625 -10.765625 5.511719 -10.851562 5.296875 -10.980469 C 4.871094 -11.320312 4.441406 -11.492188 4.015625 -11.492188 C 3.546875 -11.492188 3.074219 -11.320312 2.605469 -10.9375 C 2.308594 -10.722656 2.09375 -10.550781 1.964844 -10.382812 C 0.683594 -9.101562 -0.726562 -6.578125 -0.726562 -4.699219 C -0.683594 -4.015625 -0.339844 -3.675781 0.214844 -3.675781 Z M 0.597656 -5.210938 C 0.597656 -5.253906 0.597656 -5.253906 0.554688 -5.253906 L 0.511719 -5.296875 C 0.855469 -7.132812 1.707031 -8.671875 3.035156 -9.828125 C 3.246094 -10.039062 3.757812 -10.339844 4.058594 -10.339844 C 4.273438 -10.339844 4.441406 -10.253906 4.65625 -10.125 C 4.871094 -9.996094 4.914062 -9.785156 4.828125 -9.527344 C 4.785156 -9.398438 4.699219 -9.355469 4.65625 -9.3125 C 3.503906 -7.902344 2.351562 -6.492188 0.984375 -5.339844 C 0.898438 -5.253906 0.769531 -5.210938 0.597656 -5.210938 Z M 0.597656 -5.210938 "/></g></g></g><g fill="#313d48" fill-opacity="1"><g transform="translate(114.996673, 253.151018)"><g><path d="M 7.007812 6.28125 C 7.09375 6.28125 7.175781 6.28125 7.21875 6.238281 C 7.519531 6.152344 7.648438 5.894531 7.5625 5.425781 C 7.5625 5.382812 7.519531 5.296875 7.476562 5.167969 C 7.175781 4.015625 7.050781 2.949219 7.007812 1.878906 C 6.878906 -0.46875 7.09375 -2.691406 7.433594 -4.957031 C 7.988281 -8.800781 9.867188 -16.363281 12.003906 -19.695312 C 12.816406 -20.933594 13.457031 -22.300781 13.96875 -23.710938 C 14.140625 -24.09375 14.3125 -24.4375 14.3125 -24.90625 C 14.183594 -25.378906 14.140625 -25.589844 13.671875 -25.589844 C 13.5 -25.589844 13.371094 -25.546875 13.242188 -25.421875 C 12.773438 -25.121094 12.558594 -24.652344 12.347656 -24.179688 C 11.535156 -22.855469 10.894531 -21.402344 10.425781 -19.867188 C 9.785156 -18.027344 8.886719 -16.449219 7.859375 -14.910156 L 6.195312 -12.476562 C 6.066406 -12.261719 5.9375 -12.003906 5.640625 -11.875 C 5.339844 -12.519531 4.957031 -12.859375 4.570312 -12.859375 C 3.800781 -12.859375 2.691406 -11.707031 2.222656 -11.109375 C 1.410156 -9.828125 -0.425781 -6.535156 -0.425781 -5 C -0.382812 -4.441406 0.0429688 -4.273438 0.554688 -4.273438 C 0.898438 -4.402344 1.109375 -4.570312 1.410156 -4.785156 C 3.460938 -6.835938 5.210938 -9.101562 6.878906 -11.492188 C 7.007812 -11.707031 7.175781 -11.917969 7.304688 -12.132812 C 7.433594 -12.347656 7.605469 -12.476562 7.859375 -12.601562 L 7.859375 -12.644531 C 7.988281 -12.304688 7.902344 -12.003906 7.777344 -11.707031 C 7.476562 -10.550781 7.21875 -9.441406 6.921875 -8.289062 C 6.195312 -4.914062 5.765625 -1.582031 5.894531 1.835938 C 5.894531 2.648438 6.152344 6.28125 7.007812 6.28125 Z M 1.28125 -6.109375 C 1.152344 -6.410156 1.109375 -6.664062 1.238281 -6.921875 C 1.707031 -8.117188 2.222656 -9.226562 2.949219 -10.382812 C 2.992188 -10.507812 3.074219 -10.550781 3.117188 -10.59375 C 3.675781 -11.320312 4.273438 -11.875 5.125 -11.875 C 5.339844 -11.875 5.511719 -11.875 5.640625 -11.835938 C 5.597656 -11.621094 5.511719 -11.40625 5.382812 -11.234375 C 5.253906 -11.066406 5.085938 -10.894531 4.957031 -10.679688 C 3.800781 -9.101562 2.605469 -7.648438 1.28125 -6.109375 Z M 1.28125 -6.109375 "/></g></g></g><g fill="#313d48" fill-opacity="1"><g transform="translate(127.172599, 253.151018)"><g/></g></g><g fill="#313d48" fill-opacity="1"><g transform="translate(143.407164, 253.151018)"><g><path d="M 6.621094 4.871094 C 6.921875 4.871094 7.21875 4.828125 7.476562 4.699219 C 9.910156 3.972656 13.03125 -0.171875 14.011719 -2.476562 C 14.398438 -3.289062 14.996094 -3.886719 15.808594 -4.316406 C 16.960938 -4.871094 18.113281 -5.46875 19.269531 -6.109375 C 20.378906 -6.707031 21.488281 -7.304688 22.601562 -7.902344 C 22.769531 -7.988281 22.941406 -8.074219 23.113281 -8.160156 C 23.285156 -8.246094 23.453125 -8.375 23.582031 -8.5 C 23.667969 -8.542969 23.710938 -8.671875 23.710938 -8.800781 C 23.710938 -8.929688 23.667969 -9.015625 23.625 -9.144531 C 23.539062 -9.269531 23.410156 -9.355469 23.285156 -9.355469 C 23.199219 -9.355469 23.15625 -9.355469 23.113281 -9.3125 C 22.984375 -9.269531 22.8125 -9.183594 22.6875 -9.144531 C 22.515625 -9.101562 22.34375 -9.015625 22.214844 -8.972656 L 16.535156 -5.980469 C 16.40625 -5.894531 16.234375 -5.808594 16.105469 -5.726562 C 15.933594 -5.597656 15.765625 -5.554688 15.550781 -5.554688 L 15.378906 -5.554688 C 15.292969 -5.765625 15.292969 -5.980469 15.335938 -6.195312 C 15.378906 -6.367188 15.421875 -6.578125 15.421875 -6.792969 C 15.464844 -8.800781 14.3125 -10.082031 12.304688 -10.210938 C 11.578125 -10.210938 10.894531 -10.210938 10.210938 -10.039062 C 9.570312 -9.910156 8.972656 -9.785156 8.332031 -9.65625 C 7.691406 -9.527344 7.050781 -9.355469 6.410156 -9.226562 C 6.066406 -9.183594 5.726562 -9.101562 5.382812 -9.058594 C 5.042969 -8.972656 4.699219 -8.886719 4.359375 -8.84375 C 4.273438 -8.84375 4.1875 -8.84375 4.144531 -8.84375 C 4.058594 -8.800781 3.972656 -8.800781 3.886719 -8.800781 C 2.390625 -8.800781 1.496094 -9.613281 1.195312 -11.277344 C 0.984375 -12.347656 1.066406 -13.414062 1.367188 -14.570312 C 2.863281 -19.824219 5.894531 -23.925781 10.46875 -26.871094 C 11.792969 -27.726562 13.628906 -28.453125 15.210938 -28.453125 C 17.046875 -28.453125 18.628906 -27.683594 18.628906 -25.632812 C 18.628906 -23.285156 15.976562 -18.457031 13.5 -18.027344 C 13.457031 -17.984375 13.414062 -17.984375 13.371094 -17.984375 C 13.328125 -17.984375 13.242188 -17.945312 13.203125 -17.902344 C 12.988281 -17.730469 12.902344 -17.558594 12.945312 -17.34375 C 12.988281 -17.003906 13.285156 -16.960938 13.585938 -16.960938 C 14.910156 -16.960938 16.019531 -18.070312 16.832031 -18.96875 C 18.070312 -20.636719 18.96875 -22.386719 19.523438 -24.308594 C 19.695312 -24.820312 19.738281 -25.378906 19.695312 -25.976562 C 19.566406 -28.410156 17.472656 -29.5625 15.167969 -29.5625 C 13.117188 -29.5625 11.066406 -28.667969 9.355469 -27.511719 C 5.253906 -24.777344 1.453125 -19.738281 0.339844 -14.953125 C -0.0429688 -13.457031 -0.171875 -12.003906 0.214844 -10.507812 C 0.726562 -8.628906 2.09375 -7.734375 3.972656 -7.734375 C 4.871094 -7.734375 5.808594 -7.945312 6.664062 -8.117188 C 7.304688 -8.246094 7.988281 -8.417969 8.671875 -8.542969 C 9.3125 -8.671875 9.996094 -8.84375 10.636719 -8.972656 C 11.066406 -9.058594 11.535156 -9.101562 12.003906 -9.101562 C 13.671875 -9.058594 14.441406 -8.203125 14.269531 -6.449219 C 14.140625 -5.46875 13.84375 -4.484375 12.988281 -3.972656 C 12.433594 -3.675781 11.875 -3.332031 11.363281 -3.035156 C 10.808594 -2.691406 10.296875 -2.351562 9.742188 -2.050781 C 8.160156 -1.066406 6.195312 0.554688 5.210938 2.222656 C 4.828125 2.949219 4.871094 3.632812 5.425781 4.316406 C 5.726562 4.699219 6.152344 4.871094 6.621094 4.871094 Z M 6.707031 3.757812 C 6.578125 3.757812 6.410156 3.675781 6.28125 3.546875 C 6.109375 3.332031 6.066406 3.117188 6.109375 2.90625 C 6.792969 1.066406 10.46875 -1.238281 12.304688 -2.265625 C 11.492188 0 9.613281 2.222656 7.777344 3.289062 C 7.476562 3.460938 7.21875 3.589844 6.921875 3.71875 C 6.878906 3.757812 6.792969 3.757812 6.707031 3.757812 Z M 6.707031 3.757812 "/></g></g></g><g fill="#313d48" fill-opacity="1"><g transform="translate(164.982044, 253.151018)"><g><path d="M 0.214844 -3.675781 C 0.769531 -3.675781 1.496094 -4.273438 1.878906 -4.613281 C 2.949219 -5.597656 3.886719 -6.621094 4.871094 -7.777344 C 5 -7.902344 5.167969 -8.074219 5.296875 -8.246094 C 5.425781 -8.417969 5.640625 -8.542969 5.9375 -8.671875 C 5.640625 -7.519531 5.382812 -6.410156 5.382812 -5.253906 C 5.382812 -4.441406 5.726562 -4.015625 6.449219 -4.015625 C 6.621094 -4.015625 6.75 -4.015625 6.835938 -4.058594 C 8.628906 -4.359375 11.664062 -7.21875 12.902344 -8.460938 C 12.945312 -8.5 13.03125 -8.585938 13.074219 -8.628906 C 13.117188 -8.671875 13.117188 -8.714844 13.160156 -8.757812 C 13.242188 -9.058594 13.203125 -9.269531 12.988281 -9.398438 C 12.902344 -9.484375 12.816406 -9.527344 12.6875 -9.527344 C 12.644531 -9.527344 12.601562 -9.484375 12.476562 -9.441406 C 12.347656 -9.355469 12.21875 -9.269531 12.132812 -9.183594 C 12.003906 -9.058594 11.875 -8.972656 11.75 -8.84375 C 11.363281 -8.542969 11.023438 -8.246094 10.722656 -7.945312 C 10.382812 -7.648438 10.039062 -7.304688 9.65625 -7.007812 C 9.144531 -6.535156 8.585938 -6.195312 8.074219 -5.851562 C 7.691406 -5.640625 7.304688 -5.46875 6.921875 -5.296875 C 6.878906 -5.253906 6.835938 -5.253906 6.75 -5.253906 C 6.578125 -5.253906 6.492188 -5.382812 6.492188 -5.640625 C 6.492188 -7.476562 7.816406 -10.59375 8.628906 -12.21875 C 8.714844 -12.433594 8.800781 -12.601562 8.929688 -12.816406 C 9.015625 -12.988281 9.101562 -13.160156 9.183594 -13.371094 C 9.3125 -13.757812 9.269531 -14.054688 8.972656 -14.226562 C 8.84375 -14.269531 8.757812 -14.3125 8.714844 -14.3125 C 8.585938 -14.3125 8.417969 -14.226562 8.203125 -14.011719 C 8.074219 -13.886719 7.988281 -13.714844 7.902344 -13.585938 C 7.777344 -13.414062 7.691406 -13.242188 7.5625 -13.117188 C 7.304688 -12.773438 7.050781 -12.433594 6.835938 -12.089844 C 6.578125 -11.75 6.324219 -11.40625 6.066406 -11.109375 C 5.894531 -10.894531 5.765625 -10.765625 5.683594 -10.765625 C 5.640625 -10.765625 5.511719 -10.851562 5.296875 -10.980469 C 4.871094 -11.320312 4.441406 -11.492188 4.015625 -11.492188 C 3.546875 -11.492188 3.074219 -11.320312 2.605469 -10.9375 C 2.308594 -10.722656 2.09375 -10.550781 1.964844 -10.382812 C 0.683594 -9.101562 -0.726562 -6.578125 -0.726562 -4.699219 C -0.683594 -4.015625 -0.339844 -3.675781 0.214844 -3.675781 Z M 0.597656 -5.210938 C 0.597656 -5.253906 0.597656 -5.253906 0.554688 -5.253906 L 0.511719 -5.296875 C 0.855469 -7.132812 1.707031 -8.671875 3.035156 -9.828125 C 3.246094 -10.039062 3.757812 -10.339844 4.058594 -10.339844 C 4.273438 -10.339844 4.441406 -10.253906 4.65625 -10.125 C 4.871094 -9.996094 4.914062 -9.785156 4.828125 -9.527344 C 4.785156 -9.398438 4.699219 -9.355469 4.65625 -9.3125 C 3.503906 -7.902344 2.351562 -6.492188 0.984375 -5.339844 C 0.898438 -5.253906 0.769531 -5.210938 0.597656 -5.210938 Z M 0.597656 -5.210938 "/></g></g></g><g fill="#313d48" fill-opacity="1"><g transform="translate(176.047181, 253.151018)"><g><path d="M 0.683594 11.621094 C 1.835938 11.621094 2.648438 9.441406 2.777344 8.332031 C 2.90625 7.734375 2.992188 7.132812 3.035156 6.535156 C 3.074219 5.9375 3.117188 5.339844 3.160156 4.742188 C 3.375 1.878906 2.90625 -0.984375 1.835938 -3.757812 L 1.582031 -4.402344 C 1.539062 -4.613281 1.625 -4.742188 1.792969 -4.871094 C 2.09375 -5.042969 2.476562 -5.167969 2.863281 -5.253906 C 3.675781 -5.554688 4.359375 -5.851562 5.167969 -6.238281 C 5.980469 -6.664062 6.792969 -7.09375 7.605469 -7.519531 C 8.417969 -7.902344 9.226562 -8.332031 10.039062 -8.714844 C 10.167969 -8.800781 10.339844 -8.886719 10.46875 -8.972656 C 10.59375 -9.015625 10.765625 -9.101562 10.894531 -9.183594 C 11.109375 -9.3125 11.191406 -9.527344 11.109375 -9.785156 C 11.066406 -10.039062 10.894531 -10.167969 10.59375 -10.167969 C 10.550781 -10.167969 10.550781 -10.167969 10.550781 -10.167969 C 10.507812 -10.125 10.507812 -10.125 10.46875 -10.125 C 10.125 -9.996094 9.785156 -9.867188 9.441406 -9.699219 L 4.828125 -7.347656 C 4.101562 -6.964844 3.332031 -6.578125 2.519531 -6.367188 L 2.390625 -6.367188 C 2.265625 -6.367188 2.179688 -6.367188 2.136719 -6.410156 C 1.921875 -6.535156 1.964844 -6.75 2.09375 -6.921875 C 2.222656 -7.21875 2.390625 -7.519531 2.605469 -7.902344 C 2.992188 -8.542969 3.460938 -9.269531 3.929688 -10.039062 C 6.066406 -13.371094 10.507812 -20.976562 10.980469 -24.820312 C 11.109375 -25.335938 11.066406 -25.761719 10.550781 -26.0625 C 10.507812 -26.101562 10.425781 -26.101562 10.296875 -26.101562 C 9.3125 -26.101562 7.816406 -23.753906 6.878906 -22.085938 C 5.980469 -20.464844 4.699219 -17.773438 4.402344 -17.003906 C 1.453125 -9.65625 -0.941406 -2.09375 -1.28125 5.894531 C -1.324219 6.878906 -1.195312 7.859375 -1.066406 8.84375 C -0.941406 9.785156 -0.339844 11.621094 0.683594 11.621094 Z M 0.769531 10.253906 C 0.683594 10.253906 0.597656 10.210938 0.511719 10.082031 C 0.171875 9.441406 0.0859375 8.84375 -0.0429688 8.203125 C -0.257812 6.535156 -0.171875 4.828125 0.0429688 3.160156 C 0.214844 1.324219 0.425781 -0.511719 0.941406 -2.222656 C 1.28125 -2.007812 1.367188 -1.75 1.410156 -1.539062 C 1.75 -0.339844 2.007812 0.855469 2.050781 2.179688 C 2.179688 4.101562 2.050781 6.066406 1.75 7.988281 C 1.625 8.800781 1.496094 9.441406 1.023438 10.082031 C 0.984375 10.210938 0.898438 10.253906 0.769531 10.253906 Z M 3.632812 -11.277344 L 3.632812 -11.363281 C 3.675781 -11.320312 3.71875 -11.277344 3.757812 -11.277344 C 3.546875 -11.578125 3.632812 -11.875 3.757812 -12.175781 C 5.085938 -15.976562 6.492188 -19.652344 8.671875 -23.070312 C 8.800781 -23.285156 8.972656 -23.539062 9.101562 -23.839844 C 9.226562 -24.09375 9.441406 -24.265625 9.785156 -24.351562 C 9.910156 -24.054688 9.910156 -23.753906 9.785156 -23.496094 C 9.65625 -23.242188 9.570312 -22.984375 9.484375 -22.726562 C 7.945312 -18.667969 6.023438 -14.910156 3.757812 -11.277344 Z M 3.632812 -11.277344 "/></g></g></g><g fill="#313d48" fill-opacity="1"><g transform="translate(185.061639, 253.151018)"><g><path d="M 2.007812 -1.792969 C 4.957031 -1.792969 9.441406 -6.152344 11.492188 -8.332031 C 11.664062 -8.5 11.792969 -8.628906 11.835938 -8.757812 C 11.960938 -8.972656 11.917969 -9.183594 11.707031 -9.398438 C 11.621094 -9.484375 11.535156 -9.527344 11.40625 -9.527344 C 11.320312 -9.527344 11.191406 -9.484375 11.066406 -9.398438 C 10.9375 -9.269531 10.808594 -9.144531 10.679688 -9.015625 C 10.550781 -8.886719 10.382812 -8.757812 10.253906 -8.628906 C 9.742188 -8.160156 9.226562 -7.691406 8.757812 -7.21875 C 8.246094 -6.75 7.734375 -6.238281 7.21875 -5.765625 C 5.980469 -4.613281 4.015625 -3.246094 2.308594 -2.90625 C 1.496094 -2.90625 1.023438 -2.90625 0.855469 -3.886719 C 0.640625 -4.441406 0.597656 -4.914062 0.726562 -5.382812 C 0.769531 -5.597656 0.898438 -5.726562 1.066406 -5.765625 C 3.117188 -5.980469 5.808594 -8.5 6.152344 -10.59375 C 6.28125 -11.578125 5.726562 -12.175781 4.871094 -12.175781 C 4.828125 -12.175781 4.742188 -12.175781 4.699219 -12.175781 C 4.65625 -12.132812 4.570312 -12.132812 4.527344 -12.132812 C 2.265625 -11.792969 0.597656 -8.800781 -0.128906 -6.792969 C -0.300781 -6.152344 -0.46875 -5.554688 -0.425781 -4.828125 C -0.46875 -4.359375 -0.339844 -3.84375 -0.171875 -3.375 C 0.128906 -2.308594 0.855469 -1.792969 2.007812 -1.792969 Z M 1.625 -7.050781 C 1.582031 -7.007812 1.496094 -7.050781 1.367188 -7.09375 C 1.324219 -7.09375 1.28125 -7.175781 1.28125 -7.304688 C 1.75 -8.628906 3.203125 -10.765625 4.613281 -10.980469 C 4.828125 -11.023438 4.957031 -10.9375 5 -10.636719 C 5 -9.269531 2.734375 -7.648438 1.625 -7.050781 Z M 1.625 -7.050781 "/></g></g></g><g fill="#313d48" fill-opacity="1"><g transform="translate(194.802379, 253.151018)"><g><path d="M 0.769531 3.035156 C 1.453125 3.035156 2.265625 2.433594 2.648438 1.921875 C 4.015625 0.339844 5.554688 -1.75 6.964844 -3.675781 C 8.160156 -5.296875 9.742188 -7.476562 10.59375 -8.5 C 10.679688 -8.585938 10.722656 -8.671875 10.722656 -8.757812 C 10.851562 -9.015625 10.808594 -9.226562 10.59375 -9.398438 C 10.46875 -9.441406 10.382812 -9.484375 10.296875 -9.484375 C 10.253906 -9.484375 10.253906 -9.484375 10.210938 -9.484375 C 10.167969 -9.441406 10.167969 -9.441406 10.125 -9.441406 C 9.910156 -9.355469 9.742188 -9.226562 9.613281 -9.101562 C 9.484375 -8.929688 9.3125 -8.757812 9.183594 -8.585938 C 7.945312 -7.347656 4.1875 -1.707031 2.390625 0.554688 C 2.179688 0.8125 1.964844 1.066406 1.75 1.324219 C 1.539062 1.539062 1.28125 1.707031 0.898438 1.75 C 0.257812 1.238281 0.46875 0.46875 0.511719 -0.171875 C 0.640625 -1.667969 0.8125 -3.035156 1.152344 -4.441406 C 1.707031 -6.921875 3.929688 -13.714844 4.914062 -15.894531 C 5.125 -16.449219 5.554688 -16.703125 6.152344 -16.746094 L 15.335938 -17.558594 C 15.550781 -17.601562 15.722656 -17.601562 15.894531 -17.644531 C 16.0625 -17.644531 16.234375 -17.6875 16.449219 -17.730469 C 16.617188 -17.773438 16.703125 -17.945312 16.703125 -18.15625 C 16.660156 -18.457031 16.535156 -18.585938 16.363281 -18.585938 L 14.824219 -18.585938 C 13.628906 -18.457031 12.347656 -18.328125 10.9375 -18.242188 C 9.527344 -18.113281 8.246094 -17.984375 7.050781 -17.859375 C 7.007812 -17.859375 6.921875 -17.859375 6.835938 -17.859375 C 6.75 -17.816406 6.664062 -17.816406 6.578125 -17.816406 C 6.410156 -17.816406 6.238281 -17.859375 6.023438 -17.902344 C 6.023438 -18.113281 6.066406 -18.328125 6.152344 -18.5 C 6.195312 -18.628906 6.28125 -18.796875 6.324219 -18.925781 C 6.878906 -20.078125 7.433594 -21.191406 7.902344 -22.34375 C 8.117188 -22.726562 8.160156 -23.070312 8.117188 -23.285156 C 8.03125 -23.496094 7.902344 -23.582031 7.734375 -23.582031 C 7.433594 -23.582031 7.132812 -23.328125 6.835938 -22.8125 C 6.621094 -22.472656 6.410156 -22.128906 6.238281 -21.789062 C 6.023438 -21.445312 5.851562 -21.105469 5.640625 -20.761719 L 4.484375 -18.199219 C 4.273438 -17.730469 3.929688 -17.515625 3.417969 -17.472656 C 2.691406 -17.386719 1.921875 -17.300781 1.152344 -17.21875 C 0.382812 -17.132812 -0.382812 -17.046875 -1.152344 -16.917969 C -1.367188 -16.875 -1.582031 -16.832031 -1.792969 -16.789062 C -1.964844 -16.746094 -2.136719 -16.660156 -2.351562 -16.617188 C -2.5625 -16.578125 -2.605469 -16.40625 -2.5625 -16.148438 C -2.519531 -16.019531 -2.433594 -15.933594 -2.265625 -15.894531 C -2.136719 -15.851562 -2.007812 -15.851562 -1.792969 -15.851562 C -1.453125 -15.851562 -1.066406 -15.933594 -0.726562 -15.976562 C -0.171875 -16.019531 0.425781 -16.105469 1.023438 -16.191406 C 1.582031 -16.277344 2.179688 -16.363281 2.734375 -16.40625 L 3.074219 -16.40625 C 3.589844 -16.40625 3.632812 -16.191406 3.417969 -15.550781 C 3.117188 -14.824219 2.90625 -14.140625 2.605469 -13.328125 C 1.195312 -9.484375 -0.597656 -3.632812 -0.597656 0.511719 C -0.597656 1.496094 -0.339844 3.035156 0.769531 3.035156 Z M 0.769531 3.035156 "/></g></g></g><g fill="#313d48" fill-opacity="1"><g transform="translate(203.389612, 253.151018)"><g><path d="M 5.765625 8.460938 C 7.519531 8.460938 8.585938 2.992188 8.84375 1.367188 C 9.015625 0.382812 9.441406 -0.554688 10.082031 -1.367188 C 11.75 -3.632812 13.457031 -5.851562 15.292969 -7.945312 C 15.59375 -8.332031 15.894531 -8.671875 16.148438 -9.058594 C 16.277344 -9.269531 16.234375 -9.441406 16.019531 -9.65625 C 15.933594 -9.742188 15.851562 -9.785156 15.722656 -9.785156 C 15.636719 -9.785156 15.507812 -9.742188 15.378906 -9.65625 C 15.210938 -9.527344 15.039062 -9.355469 14.910156 -9.183594 C 14.011719 -8.203125 13.203125 -7.175781 12.390625 -6.195312 C 11.578125 -5.167969 10.765625 -4.144531 9.953125 -3.117188 C 9.828125 -3.160156 9.742188 -3.203125 9.65625 -3.203125 L 9.910156 -5.683594 C 10.039062 -6.75 10.210938 -7.859375 10.339844 -8.972656 C 10.46875 -10.039062 10.59375 -11.152344 10.722656 -12.21875 C 10.851562 -12.945312 10.722656 -13.328125 10.339844 -13.414062 C 10.296875 -13.414062 10.296875 -13.414062 10.253906 -13.457031 C 10.210938 -13.457031 10.210938 -13.457031 10.167969 -13.457031 C 9.953125 -13.457031 9.828125 -13.371094 9.699219 -13.242188 C 9.570312 -13.117188 9.441406 -12.945312 9.3125 -12.816406 C 8.929688 -12.347656 8.542969 -11.835938 8.160156 -11.363281 C 7.777344 -10.851562 7.347656 -10.339844 6.964844 -9.867188 C 6.066406 -8.714844 5.125 -7.691406 4.058594 -6.878906 C 3.84375 -6.75 3.632812 -6.578125 3.417969 -6.449219 C 3.203125 -6.324219 2.992188 -6.152344 2.777344 -6.023438 C 2.605469 -5.9375 2.476562 -5.894531 2.351562 -5.894531 C 2.050781 -5.894531 1.921875 -6.109375 1.964844 -6.492188 C 1.964844 -6.964844 1.964844 -7.390625 2.09375 -7.859375 C 2.390625 -9.183594 2.648438 -10.425781 3.460938 -11.492188 C 3.675781 -11.792969 3.589844 -12.089844 3.375 -12.21875 C 3.203125 -12.261719 3.117188 -12.304688 3.074219 -12.304688 C 2.90625 -12.304688 2.734375 -12.21875 2.605469 -12.089844 C 1.367188 -10.59375 0.855469 -8.332031 0.855469 -6.449219 C 0.855469 -5.425781 1.152344 -4.699219 2.308594 -4.699219 C 2.648438 -4.742188 2.992188 -4.828125 3.332031 -5.042969 C 5.210938 -6.28125 6.707031 -7.777344 8.117188 -9.527344 L 9.015625 -10.59375 C 9.101562 -10.679688 9.183594 -10.679688 9.269531 -10.636719 C 9.355469 -10.636719 9.398438 -10.59375 9.398438 -10.46875 C 9.398438 -10.253906 9.398438 -10.125 9.355469 -10.039062 L 8.972656 -7.007812 C 8.84375 -6.023438 8.714844 -5.085938 8.585938 -4.144531 C 8.460938 -3.203125 8.375 -2.265625 8.246094 -1.324219 C 8.117188 -0.683594 7.945312 -0.257812 7.648438 0.214844 C 6.449219 2.050781 5.382812 3.84375 4.699219 5.894531 C 4.441406 6.492188 4.484375 7.132812 4.871094 7.816406 C 5.085938 8.246094 5.382812 8.460938 5.765625 8.460938 Z M 5.9375 6.835938 C 5.894531 6.835938 5.851562 6.835938 5.808594 6.792969 C 5.597656 6.664062 5.640625 6.367188 5.765625 6.152344 L 6.28125 4.871094 C 6.492188 4.402344 6.707031 3.972656 6.878906 3.546875 C 7.050781 3.84375 7.050781 4.1875 6.921875 4.570312 L 6.28125 6.410156 C 6.238281 6.492188 6.195312 6.578125 6.152344 6.707031 C 6.109375 6.792969 6.066406 6.835938 5.9375 6.835938 Z M 5.9375 6.835938 "/></g></g></g><g fill="#313d48" fill-opacity="1"><g transform="translate(217.488048, 253.151018)"><g/></g></g><g fill="#313d48" fill-opacity="1"><g transform="translate(233.722613, 253.151018)"><g><path d="M 1.324219 4.058594 C 2.433594 4.058594 4.058594 1.582031 4.65625 0.640625 C 5.726562 -1.109375 6.75 -2.820312 7.777344 -4.65625 L 11.875 -11.621094 C 12.132812 -12.089844 12.390625 -12.304688 12.601562 -12.304688 C 12.730469 -12.304688 12.945312 -12.261719 13.242188 -12.175781 C 14.738281 -11.707031 16.277344 -11.320312 17.859375 -11.277344 C 18.242188 -11.277344 18.414062 -11.109375 18.371094 -10.765625 C 18.371094 -10.636719 18.371094 -10.46875 18.328125 -10.339844 C 18.285156 -10.210938 18.285156 -10.039062 18.285156 -9.910156 C 17.984375 -7.734375 17.773438 -5.554688 17.902344 -3.375 C 17.945312 -1.878906 18.15625 -0.382812 18.667969 1.023438 C 19.140625 2.09375 19.824219 2.820312 20.71875 3.203125 C 20.933594 3.332031 21.148438 3.375 21.402344 3.375 L 21.660156 3.375 C 22.042969 3.332031 22.300781 2.90625 22.257812 2.433594 C 22.214844 2.09375 22.003906 1.792969 21.703125 1.792969 C 21.617188 1.792969 21.53125 1.792969 21.488281 1.835938 C 21.320312 1.921875 21.148438 1.964844 21.019531 1.964844 C 20.035156 1.964844 19.394531 -0.214844 19.269531 -1.023438 C 19.054688 -2.09375 18.925781 -3.203125 18.96875 -4.359375 C 19.097656 -10.039062 20.292969 -15.378906 21.617188 -20.890625 C 21.832031 -21.789062 22.003906 -22.644531 22.171875 -23.625 C 22.300781 -24.09375 22.34375 -24.609375 22.128906 -25.121094 C 21.960938 -25.503906 21.703125 -25.675781 21.320312 -25.675781 C 21.277344 -25.675781 21.148438 -25.632812 20.976562 -25.589844 C 19.652344 -24.863281 16.535156 -20.933594 15.722656 -19.652344 C 15.167969 -18.753906 14.570312 -17.859375 13.96875 -16.960938 C 13.371094 -16.0625 12.773438 -15.167969 12.175781 -14.269531 C 11.917969 -13.886719 11.707031 -13.714844 11.578125 -13.714844 C 11.535156 -13.714844 11.363281 -13.757812 11.066406 -13.800781 C 10.59375 -13.925781 10.082031 -14.011719 9.613281 -14.097656 C 9.144531 -14.183594 8.628906 -14.269531 8.160156 -14.355469 C 7.859375 -14.398438 7.519531 -14.441406 7.21875 -14.441406 C 6.238281 -14.441406 5.042969 -14.226562 4.402344 -13.414062 C 4.058594 -13.03125 4.015625 -12.558594 4.230469 -12.089844 C 4.484375 -11.621094 4.871094 -11.40625 5.339844 -11.40625 C 5.46875 -11.492188 5.554688 -11.535156 5.554688 -11.535156 C 5.597656 -11.621094 5.597656 -11.707031 5.511719 -11.792969 C 5.46875 -11.835938 5.46875 -11.875 5.425781 -11.875 C 5.382812 -11.875 5.296875 -11.917969 5.253906 -11.960938 C 4.613281 -12.519531 4.65625 -12.945312 5.382812 -13.285156 C 6.023438 -13.585938 6.367188 -13.585938 7.09375 -13.585938 C 8.417969 -13.585938 9.742188 -13.328125 11.066406 -12.773438 C 11.066406 -12.558594 11.023438 -12.433594 10.9375 -12.304688 C 10.851562 -12.175781 10.765625 -12.046875 10.722656 -11.917969 L 5.597656 -3.074219 C 5.125 -2.308594 4.699219 -1.539062 4.273438 -0.8125 C 3.800781 -0.0429688 3.332031 0.683594 2.777344 1.410156 C 2.390625 1.921875 2.050781 2.351562 1.707031 2.691406 C 1.625 2.777344 1.539062 2.820312 1.410156 2.820312 C 1.238281 2.820312 1.109375 2.734375 1.066406 2.519531 C 0.898438 1.625 0.941406 0.769531 1.152344 0.0429688 C 1.238281 -0.300781 1.410156 -0.46875 1.707031 -0.511719 C 1.878906 -0.554688 2.09375 -0.640625 2.050781 -0.855469 C 2.007812 -1.066406 1.878906 -1.238281 1.582031 -1.324219 C 1.066406 -1.324219 0.855469 -1.238281 0.554688 -0.769531 C -0.0859375 0.554688 -0.171875 1.921875 0.300781 3.289062 L 0.425781 3.546875 C 0.640625 3.886719 0.941406 4.058594 1.324219 4.058594 Z M 17.386719 -12.433594 C 16.019531 -12.433594 14.738281 -12.816406 13.414062 -13.203125 C 13.117188 -13.242188 13.03125 -13.414062 13.160156 -13.714844 C 13.203125 -13.84375 13.285156 -13.925781 13.371094 -14.054688 C 13.414062 -14.140625 13.5 -14.226562 13.542969 -14.3125 C 14.867188 -16.320312 16.148438 -18.242188 17.515625 -20.25 C 17.945312 -20.890625 18.414062 -21.488281 18.96875 -22.042969 C 19.480469 -22.601562 19.996094 -23.15625 20.507812 -23.710938 C 20.636719 -23.882812 20.71875 -23.925781 20.847656 -23.882812 C 20.976562 -23.839844 21.0625 -23.796875 21.0625 -23.710938 C 21.0625 -23.625 21.0625 -23.539062 21.019531 -23.453125 C 20.890625 -22.8125 20.804688 -22.300781 20.636719 -21.660156 C 19.996094 -18.882812 19.394531 -16.105469 18.753906 -13.371094 C 18.585938 -12.519531 18.5 -12.476562 17.6875 -12.433594 Z M 17.386719 -12.433594 "/></g></g></g><g fill="#313d48" fill-opacity="1"><g transform="translate(255.938326, 253.151018)"><g><path d="M 1.410156 2.265625 C 2.265625 2.265625 3.632812 0.8125 4.101562 0.0859375 C 5 -1.109375 5.9375 -2.351562 6.878906 -3.675781 C 7.777344 -4.957031 8.714844 -6.195312 9.613281 -7.347656 C 9.828125 -7.691406 10.082031 -8.074219 10.253906 -8.417969 C 10.382812 -8.542969 10.425781 -8.714844 10.425781 -8.929688 C 10.46875 -9.144531 10.425781 -9.3125 10.210938 -9.398438 C 10.082031 -9.441406 9.996094 -9.484375 9.910156 -9.484375 C 9.613281 -9.484375 9.226562 -8.800781 9.101562 -8.585938 C 7.21875 -5.980469 5.042969 -2.949219 3.035156 -0.382812 C 2.820312 -0.0859375 2.007812 0.941406 1.625 0.941406 C 1.410156 0.941406 1.28125 0.8125 1.238281 0.597656 C 0.941406 -0.257812 1.023438 -1.152344 1.152344 -2.007812 C 1.367188 -4.65625 1.964844 -9.3125 3.460938 -11.578125 C 5.425781 -14.527344 9.101562 -20.679688 9.867188 -24.09375 C 9.910156 -24.4375 9.867188 -24.777344 9.484375 -24.949219 C 9.3125 -24.992188 9.226562 -25.035156 9.183594 -25.035156 C 9.015625 -25.035156 8.800781 -24.949219 8.585938 -24.777344 C 5.640625 -21.832031 3.246094 -15.378906 1.964844 -11.492188 C 1.667969 -10.507812 1.410156 -9.65625 0.769531 -8.84375 C 0.597656 -8.671875 0.46875 -8.417969 0.640625 -8.203125 C 1.023438 -7.734375 0.855469 -7.21875 0.726562 -6.75 C 0.339844 -4.914062 0.0429688 -3.117188 0 -0.941406 C 0 -0.8125 0 -0.597656 0 -0.339844 C 0 -0.0859375 0 0.171875 0.0429688 0.46875 C 0.171875 1.152344 0.597656 2.265625 1.410156 2.265625 Z M 4.871094 -15.335938 C 4.742188 -15.59375 4.785156 -15.894531 4.914062 -16.234375 C 5.726562 -18.328125 6.707031 -20.292969 7.859375 -22.214844 C 8.03125 -22.429688 8.160156 -22.558594 8.289062 -22.558594 C 8.332031 -22.558594 8.417969 -22.515625 8.542969 -22.472656 C 8.5 -22.515625 8.5 -22.558594 8.5 -22.601562 C 8.5 -22.558594 8.5 -22.558594 8.542969 -22.515625 L 8.542969 -22.472656 L 7.390625 -20.164062 C 6.535156 -18.542969 5.726562 -16.917969 4.914062 -15.335938 C 4.914062 -15.378906 4.914062 -15.378906 4.914062 -15.378906 C 4.871094 -15.378906 4.871094 -15.378906 4.871094 -15.335938 Z M 4.871094 -15.335938 "/></g></g></g><g fill="#313d48" fill-opacity="1"><g transform="translate(264.226502, 253.151018)"><g><path d="M 1.410156 2.265625 C 2.265625 2.265625 3.632812 0.8125 4.101562 0.0859375 C 5 -1.109375 5.9375 -2.351562 6.878906 -3.675781 C 7.777344 -4.957031 8.714844 -6.195312 9.613281 -7.347656 C 9.828125 -7.691406 10.082031 -8.074219 10.253906 -8.417969 C 10.382812 -8.542969 10.425781 -8.714844 10.425781 -8.929688 C 10.46875 -9.144531 10.425781 -9.3125 10.210938 -9.398438 C 10.082031 -9.441406 9.996094 -9.484375 9.910156 -9.484375 C 9.613281 -9.484375 9.226562 -8.800781 9.101562 -8.585938 C 7.21875 -5.980469 5.042969 -2.949219 3.035156 -0.382812 C 2.820312 -0.0859375 2.007812 0.941406 1.625 0.941406 C 1.410156 0.941406 1.28125 0.8125 1.238281 0.597656 C 0.941406 -0.257812 1.023438 -1.152344 1.152344 -2.007812 C 1.367188 -4.65625 1.964844 -9.3125 3.460938 -11.578125 C 5.425781 -14.527344 9.101562 -20.679688 9.867188 -24.09375 C 9.910156 -24.4375 9.867188 -24.777344 9.484375 -24.949219 C 9.3125 -24.992188 9.226562 -25.035156 9.183594 -25.035156 C 9.015625 -25.035156 8.800781 -24.949219 8.585938 -24.777344 C 5.640625 -21.832031 3.246094 -15.378906 1.964844 -11.492188 C 1.667969 -10.507812 1.410156 -9.65625 0.769531 -8.84375 C 0.597656 -8.671875 0.46875 -8.417969 0.640625 -8.203125 C 1.023438 -7.734375 0.855469 -7.21875 0.726562 -6.75 C 0.339844 -4.914062 0.0429688 -3.117188 0 -0.941406 C 0 -0.8125 0 -0.597656 0 -0.339844 C 0 -0.0859375 0 0.171875 0.0429688 0.46875 C 0.171875 1.152344 0.597656 2.265625 1.410156 2.265625 Z M 4.871094 -15.335938 C 4.742188 -15.59375 4.785156 -15.894531 4.914062 -16.234375 C 5.726562 -18.328125 6.707031 -20.292969 7.859375 -22.214844 C 8.03125 -22.429688 8.160156 -22.558594 8.289062 -22.558594 C 8.332031 -22.558594 8.417969 -22.515625 8.542969 -22.472656 C 8.5 -22.515625 8.5 -22.558594 8.5 -22.601562 C 8.5 -22.558594 8.5 -22.558594 8.542969 -22.515625 L 8.542969 -22.472656 L 7.390625 -20.164062 C 6.535156 -18.542969 5.726562 -16.917969 4.914062 -15.335938 C 4.914062 -15.378906 4.914062 -15.378906 4.914062 -15.378906 C 4.871094 -15.378906 4.871094 -15.378906 4.871094 -15.335938 Z M 4.871094 -15.335938 "/></g></g></g><g fill="#313d48" fill-opacity="1"><g transform="translate(272.514677, 253.151018)"><g><path d="M 1.835938 -1.539062 C 2.992188 -1.539062 4.144531 -2.433594 4.957031 -3.160156 C 6.835938 -4.742188 8.332031 -6.621094 9.828125 -8.542969 C 9.953125 -8.671875 10.039062 -8.800781 10.082031 -9.015625 C 10.125 -9.226562 10.082031 -9.398438 9.910156 -9.527344 C 9.828125 -9.613281 9.742188 -9.65625 9.613281 -9.65625 C 9.527344 -9.65625 9.441406 -9.613281 9.398438 -9.570312 C 9.183594 -9.398438 8.972656 -9.226562 8.800781 -9.015625 C 8.460938 -8.628906 8.117188 -8.203125 7.816406 -7.816406 C 7.519531 -7.433594 7.175781 -7.007812 6.835938 -6.621094 C 5.851562 -5.46875 4.828125 -4.484375 3.675781 -3.503906 C 3.160156 -3.117188 2.691406 -2.820312 2.050781 -2.691406 C 1.582031 -2.691406 1.324219 -2.734375 1.195312 -3.203125 C 1.109375 -3.589844 1.066406 -3.972656 1.109375 -4.316406 C 1.367188 -6.324219 2.007812 -8.460938 2.734375 -10.339844 C 2.777344 -10.550781 2.734375 -10.722656 2.519531 -10.808594 C 2.390625 -10.851562 2.308594 -10.894531 2.222656 -10.894531 C 2.136719 -10.894531 2.007812 -10.851562 1.878906 -10.765625 C 0.769531 -9.65625 0.300781 -6.195312 0 -4.316406 C 0 -3.675781 0 -3.246094 0.171875 -2.777344 C 0.46875 -1.964844 1.023438 -1.539062 1.835938 -1.539062 Z M 2.949219 -12.433594 C 3.417969 -12.433594 3.84375 -12.859375 3.84375 -13.328125 C 3.800781 -13.800781 3.503906 -14.011719 2.992188 -14.011719 C 2.476562 -14.011719 2.222656 -13.757812 2.222656 -13.242188 C 2.265625 -12.730469 2.5625 -12.390625 2.949219 -12.433594 Z M 2.949219 -12.433594 "/></g></g></g><g fill="#313d48" fill-opacity="1"><g transform="translate(280.461076, 253.151018)"><g><path d="M 2.007812 -1.792969 C 4.957031 -1.792969 9.441406 -6.152344 11.492188 -8.332031 C 11.664062 -8.5 11.792969 -8.628906 11.835938 -8.757812 C 11.960938 -8.972656 11.917969 -9.183594 11.707031 -9.398438 C 11.621094 -9.484375 11.535156 -9.527344 11.40625 -9.527344 C 11.320312 -9.527344 11.191406 -9.484375 11.066406 -9.398438 C 10.9375 -9.269531 10.808594 -9.144531 10.679688 -9.015625 C 10.550781 -8.886719 10.382812 -8.757812 10.253906 -8.628906 C 9.742188 -8.160156 9.226562 -7.691406 8.757812 -7.21875 C 8.246094 -6.75 7.734375 -6.238281 7.21875 -5.765625 C 5.980469 -4.613281 4.015625 -3.246094 2.308594 -2.90625 C 1.496094 -2.90625 1.023438 -2.90625 0.855469 -3.886719 C 0.640625 -4.441406 0.597656 -4.914062 0.726562 -5.382812 C 0.769531 -5.597656 0.898438 -5.726562 1.066406 -5.765625 C 3.117188 -5.980469 5.808594 -8.5 6.152344 -10.59375 C 6.28125 -11.578125 5.726562 -12.175781 4.871094 -12.175781 C 4.828125 -12.175781 4.742188 -12.175781 4.699219 -12.175781 C 4.65625 -12.132812 4.570312 -12.132812 4.527344 -12.132812 C 2.265625 -11.792969 0.597656 -8.800781 -0.128906 -6.792969 C -0.300781 -6.152344 -0.46875 -5.554688 -0.425781 -4.828125 C -0.46875 -4.359375 -0.339844 -3.84375 -0.171875 -3.375 C 0.128906 -2.308594 0.855469 -1.792969 2.007812 -1.792969 Z M 1.625 -7.050781 C 1.582031 -7.007812 1.496094 -7.050781 1.367188 -7.09375 C 1.324219 -7.09375 1.28125 -7.175781 1.28125 -7.304688 C 1.75 -8.628906 3.203125 -10.765625 4.613281 -10.980469 C 4.828125 -11.023438 4.957031 -10.9375 5 -10.636719 C 5 -9.269531 2.734375 -7.648438 1.625 -7.050781 Z M 1.625 -7.050781 "/></g></g></g><g fill="#313d48" fill-opacity="1"><g transform="translate(290.201817, 253.151018)"><g><path d="M -0.300781 3.417969 C 1.582031 3.417969 2.863281 -0.0859375 2.992188 -1.878906 C 3.074219 -2.433594 3.375 -2.90625 3.84375 -3.246094 L 7.390625 -5.765625 C 8.460938 -6.578125 9.527344 -7.304688 10.679688 -8.117188 C 10.980469 -8.332031 11.234375 -8.542969 11.363281 -8.757812 C 11.578125 -8.972656 11.535156 -9.183594 11.277344 -9.398438 C 11.191406 -9.484375 11.109375 -9.527344 10.980469 -9.527344 C 10.851562 -9.527344 10.722656 -9.484375 10.59375 -9.398438 C 10.46875 -9.269531 10.339844 -9.183594 10.210938 -9.144531 L 4.015625 -4.785156 C 3.84375 -4.65625 3.632812 -4.527344 3.375 -4.402344 C 3.246094 -4.613281 3.160156 -4.742188 3.160156 -4.785156 C 3.035156 -6.324219 2.777344 -7.816406 2.476562 -9.355469 C 2.433594 -9.570312 2.390625 -9.828125 2.390625 -10.039062 C 2.390625 -10.253906 2.390625 -10.507812 2.433594 -10.722656 C 2.5625 -12.304688 3.929688 -13.628906 5.511719 -13.628906 C 5.640625 -13.628906 5.726562 -13.628906 5.765625 -13.671875 C 6.066406 -13.800781 6.152344 -14.140625 5.9375 -14.355469 C 5.597656 -14.695312 5.382812 -14.695312 4.914062 -14.695312 C 4.441406 -14.695312 4.015625 -14.570312 3.589844 -14.3125 C 2.09375 -13.242188 1.195312 -11.875 1.324219 -9.953125 C 1.367188 -9.398438 1.410156 -8.84375 1.539062 -8.289062 C 1.835938 -6.964844 2.007812 -5.765625 2.050781 -4.441406 C 2.050781 -3.632812 1.921875 -3.117188 1.28125 -2.605469 C 0.257812 -1.921875 -1.453125 0.214844 -1.667969 1.367188 C -1.792969 2.09375 -1.667969 2.734375 -0.984375 3.203125 C -0.769531 3.332031 -0.511719 3.417969 -0.300781 3.417969 Z M -0.214844 2.222656 C -0.339844 2.222656 -0.382812 2.179688 -0.425781 2.09375 C -0.511719 2.007812 -0.554688 1.878906 -0.554688 1.75 C -0.597656 1.667969 -0.597656 1.582031 -0.554688 1.453125 C -0.128906 0.382812 0.597656 -0.511719 1.582031 -1.238281 C 1.539062 0.128906 0.898438 1.453125 0.0859375 2.09375 C 0 2.179688 -0.0859375 2.222656 -0.214844 2.222656 Z M -0.214844 2.222656 "/></g></g></g><path stroke-linecap="round" transform="matrix(0.75, 0, 0, 0.75, 53.99186, 217.955918)" fill="none" stroke-linejoin="miter" d="M 1.000437 1.001484 L 355.021293 1.001484 " stroke="#313d48" stroke-width="2" stroke-opacity="1" stroke-miterlimit="4"/></svg>